<svg width="24" height="24" viewBox="0 0 24 24" fill="none" xmlns="http://www.w3.org/2000/svg">
<g id="swap_vert">
<mask id="mask0_7243_8230" style="mask-type:alpha" maskUnits="userSpaceOnUse" x="0" y="0" width="24" height="24">
<rect id="Bounding box" x="24" width="24" height="24" transform="rotate(90 24 0)" fill="#D9D9D9"/>
</mask>
<g mask="url(#mask0_7243_8230)">
<path id="swap_vert_2" d="M5.825 13.5752L12 13.5752C12.2833 13.5752 12.521 13.6712 12.713 13.8632C12.9043 14.0545 13 14.2919 13 14.5752C13 14.8585 12.9043 15.0962 12.713 15.2882C12.521 15.4795 12.2833 15.5752 12 15.5752L5.825 15.5752L7.7 17.4502C7.88333 17.6335 7.97933 17.8625 7.988 18.1372C7.996 18.4125 7.9 18.6502 7.7 18.8502C7.51667 19.0502 7.28767 19.1545 7.013 19.1632C6.73767 19.1712 6.5 19.0752 6.3 18.8752L2.7 15.2752C2.6 15.1752 2.52933 15.0669 2.488 14.9502C2.446 14.8335 2.425 14.7085 2.425 14.5752C2.425 14.4419 2.446 14.3169 2.488 14.2002C2.52933 14.0835 2.6 13.9752 2.7 13.8752L6.3 10.2752C6.48333 10.0919 6.71233 10.0002 6.987 10.0002C7.26233 10.0002 7.5 10.1002 7.7 10.3002C7.88333 10.5002 7.97933 10.7335 7.988 11.0002C7.996 11.2669 7.9 11.5002 7.7 11.7002L5.825 13.5752ZM18.175 7.57519L16.3 5.70019C16.0833 5.48353 15.9833 5.24186 16 4.97519C16.0167 4.70853 16.1167 4.48353 16.3 4.30019C16.5 4.10019 16.7377 4.00019 17.013 4.00019C17.2877 4.00019 17.5167 4.09186 17.7 4.27519L21.3 7.87519C21.4 7.97519 21.471 8.08353 21.513 8.20019C21.5543 8.31686 21.575 8.44186 21.575 8.57519C21.575 8.70853 21.5543 8.83353 21.513 8.95019C21.471 9.06686 21.4 9.17519 21.3 9.27519L17.7 12.8752C17.5167 13.0585 17.2833 13.1502 17 13.1502C16.7167 13.1502 16.4833 13.0585 16.3 12.8752C16.1 12.6752 16 12.4379 16 12.1632C16 11.8879 16.1 11.6502 16.3 11.4502L18.175 9.57519L12 9.57519C11.7167 9.57519 11.4793 9.47953 11.288 9.28819C11.096 9.09619 11 8.85853 11 8.57519C11 8.29186 11.096 8.05453 11.288 7.86319C11.4793 7.67119 11.7167 7.57519 12 7.57519L18.175 7.57519Z" fill="#222426"/>
</g>
</g>
</svg>
